<?xml version="1.0" encoding="utf-8"?>
<!-- Generator: Adobe Illustrator 16.0.4, SVG Export Plug-In . SVG Version: 6.00 Build 0)  -->
<!DOCTYPE svg PUBLIC "-//W3C//DTD SVG 1.1//EN" "http://www.w3.org/Graphics/SVG/1.1/DTD/svg11.dtd">
<svg version="1.1" id="Layer_1" xmlns="http://www.w3.org/2000/svg" xmlns:xlink="http://www.w3.org/1999/xlink" x="0px" y="0px"
	 width="375px" height="136px" viewBox="0 0 375 136" enable-background="new 0 0 375 136" xml:space="preserve">
<g id="Layer_1_1_">
	<g>
		<g>
			<defs>
				<polygon id="SVGID_1_" points="57.271,69.139 57.271,120 174.803,79.695 174.803,27.8 				"/>
			</defs>
			<clipPath id="SVGID_2_">
				<use xlink:href="#SVGID_1_"  overflow="visible"/>
			</clipPath>
			
				<rect x="50.147" y="20.677" opacity="0.8536" clip-path="url(#SVGID_2_)" fill="#427F7D" enable-background="new    " width="131.779" height="106.446"/>
		</g>
	</g>
	<g>
		<g>
			<defs>
				<polygon id="SVGID_3_" points="38.75,60.59 38.75,111.453 156.283,71.148 156.283,19.252 				"/>
			</defs>
			<clipPath id="SVGID_4_">
				<use xlink:href="#SVGID_3_"  overflow="visible"/>
			</clipPath>
			
				<rect x="31.627" y="12.129" opacity="0.5379" clip-path="url(#SVGID_4_)" fill="#427F7D" enable-background="new    " width="131.779" height="106.446"/>
		</g>
	</g>
	<g>
		<g>
			<defs>
				<polygon id="SVGID_5_" points="21.655,50.618 21.655,101.479 139.188,61.176 139.188,9.28 				"/>
			</defs>
			<clipPath id="SVGID_6_">
				<use xlink:href="#SVGID_5_"  overflow="visible"/>
			</clipPath>
			
				<rect x="14.532" y="2.157" opacity="0.2239" clip-path="url(#SVGID_6_)" fill="#427F7D" enable-background="new    " width="131.779" height="106.444"/>
		</g>
	</g>
</g>
<g id="Layer_2">
	<rect x="38.5" y="66" fill="none" width="280.5" height="44"/>
	<g enable-background="new    ">
		<path fill="#FFFFFF" d="M75.12,78.959c0,5.537-2.417,9.024-7.248,10.464l8.784,12.192h-7.2l-8.016-11.28H54v11.28h-5.664V68.063
			h12.48c5.119,0,8.784,0.863,10.992,2.592C74.016,72.383,75.12,75.151,75.12,78.959z M67.583,83.711
			c1.152-0.991,1.728-2.583,1.728-4.775c0-2.191-0.592-3.696-1.776-4.513c-1.184-0.815-3.296-1.224-6.336-1.224H54v12h7.056
			C64.255,85.199,66.432,84.703,67.583,83.711z"/>
		<path fill="#FFFFFF" d="M106.848,68.063v5.328H88.943v8.88h16.08v5.04h-16.08v8.976h18.48v5.328H83.279V68.063H106.848z"/>
		<path fill="#FFFFFF" d="M120.335,73.343v9.217h14.88v5.231h-14.88v13.824h-5.664V68.063h22.368l-0.048,5.279H120.335z"/>
		<path fill="#FFFFFF" d="M158.975,96.479c1.952,0,3.632-0.328,5.04-0.984c1.408-0.655,2.88-1.704,4.416-3.144l3.648,3.744
			c-3.552,3.936-7.864,5.903-12.936,5.903c-5.072,0-9.281-1.632-12.624-4.896c-3.344-3.265-5.016-7.393-5.016-12.385
			c0-4.991,1.704-9.151,5.112-12.479c3.408-3.328,7.711-4.992,12.912-4.992c5.2,0,9.544,1.92,13.032,5.76l-3.6,3.937
			c-1.601-1.536-3.113-2.607-4.536-3.216c-1.424-0.607-3.096-0.912-5.016-0.912c-3.392,0-6.24,1.097-8.544,3.288
			c-2.304,2.192-3.456,4.992-3.456,8.399c0,3.408,1.144,6.257,3.432,8.544C153.126,95.336,155.838,96.479,158.975,96.479z"/>
		<path fill="#FFFFFF" d="M206.35,96.983c-3.392,3.312-7.584,4.968-12.575,4.968c-4.992,0-9.185-1.656-12.576-4.968
			c-3.392-3.312-5.088-7.44-5.088-12.384c0-4.944,1.696-9.072,5.088-12.385c3.392-3.312,7.584-4.968,12.576-4.968
			c4.991,0,9.184,1.656,12.575,4.968c3.393,3.312,5.089,7.44,5.089,12.385C211.438,89.543,209.742,93.671,206.35,96.983z
			 M202.198,75.983c-2.288-2.368-5.097-3.552-8.424-3.552c-3.329,0-6.137,1.184-8.424,3.552c-2.288,2.368-3.432,5.24-3.432,8.616
			s1.144,6.248,3.432,8.615c2.288,2.369,5.095,3.553,8.424,3.553c3.327,0,6.136-1.184,8.424-3.553
			c2.288-2.367,3.433-5.239,3.433-8.615S204.486,78.352,202.198,75.983z"/>
		<path fill="#FFFFFF" d="M243.982,72.455c3.231,2.928,4.848,7.001,4.848,12.216c0,5.217-1.568,9.345-4.704,12.385
			s-7.937,4.56-14.399,4.56H218.59V68.063h11.52C236.126,68.063,240.75,69.527,243.982,72.455z M243.118,84.815
			c0-7.681-4.4-11.521-13.2-11.521h-5.664v22.992h6.288c4.063,0,7.177-0.968,9.336-2.904
			C242.038,91.447,243.118,88.592,243.118,84.815z"/>
		<path fill="#FFFFFF" d="M279.693,68.063v5.328h-17.904v8.88h16.08v5.04h-16.08v8.976h18.48v5.328h-24.145V68.063H279.693z"/>
		<path fill="#FFFFFF" d="M297.67,72.479c-1.648,0-3,0.336-4.057,1.008s-1.584,1.688-1.584,3.048c0,1.36,0.527,2.4,1.584,3.12
			s3.304,1.496,6.744,2.328c3.439,0.832,6.031,2,7.775,3.504c1.744,1.505,2.617,3.72,2.617,6.647c0,2.929-1.104,5.305-3.312,7.129
			c-2.208,1.823-5.104,2.735-8.688,2.735c-5.249,0-9.905-1.808-13.969-5.424l3.553-4.271c3.391,2.944,6.911,4.415,10.56,4.415
			c1.823,0,3.271-0.391,4.344-1.176c1.071-0.783,1.608-1.824,1.608-3.12s-0.504-2.304-1.512-3.023
			c-1.009-0.72-2.745-1.376-5.209-1.968c-2.465-0.592-4.336-1.136-5.615-1.633c-1.281-0.495-2.417-1.144-3.408-1.943
			c-1.984-1.504-2.977-3.808-2.977-6.912c0-3.104,1.129-5.496,3.385-7.176c2.256-1.681,5.047-2.521,8.375-2.521
			c2.145,0,4.272,0.353,6.385,1.057c2.111,0.704,3.936,1.696,5.472,2.976l-3.024,4.271c-0.992-0.896-2.336-1.632-4.031-2.208
			C300.988,72.768,299.316,72.479,297.67,72.479z"/>
	</g>
</g>
</svg>
