<?xml version="1.0" encoding="utf-8"?>
<!-- Generator: Adobe Illustrator 16.0.4, SVG Export Plug-In . SVG Version: 6.00 Build 0)  -->
<!DOCTYPE svg PUBLIC "-//W3C//DTD SVG 1.1//EN" "http://www.w3.org/Graphics/SVG/1.1/DTD/svg11.dtd">
<svg version="1.1" id="Layer_1" xmlns="http://www.w3.org/2000/svg" xmlns:xlink="http://www.w3.org/1999/xlink" x="0px" y="0px"
	 width="20px" height="20px" viewBox="0 0 20 20" enable-background="new 0 0 20 20" xml:space="preserve">
<path id="_x31_28" fill="#FFFFFF" d="M18.846,4.453c-0.642,0.279-1.33,0.468-2.051,0.556c-0.006-0.012-0.012-0.025-0.017-0.038
	c0.764-0.447,1.354-1.158,1.643-2.008c-0.221,0.135-1.288,0.736-2.327,0.931c-0.678-0.745-1.656-1.212-2.743-1.212
	c-2.296,0-3.709,1.884-3.709,3.71c0,0.142,0.067,0.731,0.08,0.765C6.636,7.09,3.9,5.605,2.138,3.329
	C0.876,5.626,2.199,7.618,3.104,8.328C2.578,8.319,2.077,8.206,1.622,8.007c0.096,1.768,1.374,3.217,3.057,3.579
	c-0.675,0.19-1.483,0.046-1.794-0.037c0.497,1.479,1.859,2.559,3.485,2.639c-2.488,1.828-5.172,1.643-5.215,1.643
	c1.577,0.943,3.423,1.5,5.395,1.488c7.228-0.047,10.938-6.46,10.498-11.065C17.837,5.885,18.478,5.245,18.846,4.453z"/>
</svg>
